# xmcd
#
# Track frame offsets:
#	150
#	20368
#	40779
#	64977
#	84834
#	101875
#	117425
#	138251
#	156761
#	177699
#	199563
#	226685
#	247641
#	268743
#
# Disc length: 3777 seconds
#
# Revision: 0
# Processed by: cddbd v1.5.2PL0 Copyright (c) Steve Scherf et al.
# Submitted via: EasyCDDAExtractor 15.1.0.1
#
DISCID=b20ebf0e
DTITLE=Sotkanmuna - Sampo
DYEAR=1900
DGENRE=
TTITLE0=Aivojumppaa
TTITLE1=Ajanpysäytyskokeiluja
TTITLE2=Ei oo helppoo/ on vaikeeta
TTITLE3=Finland break beat
TTITLE4=Itä-Suomi
TTITLE5=Kasvihuonetalvi
TTITLE6=Matkailu
TTITLE7=Prontosauriit
TTITLE8=Rahamassikäspä
TTITLE9=Rasva
TTITLE10=Universitas
TTITLE11=Vitun alkon myyjä
TTITLE12=Äijä
TTITLE13=Gandhi
EXTD=
EXTT0=
EXTT1=
EXTT2=
EXTT3=
EXTT4=
EXTT5=
EXTT6=
EXTT7=
EXTT8=
EXTT9=
EXTT10=
EXTT11=
EXTT12=
EXTT13=
PLAYORDER=
